<svg xmlns="http://www.w3.org/2000/svg" viewBox="0 0 102 102"><defs><style>.cls-16{fill:none;}.cls-16,.cls-26{stroke:#fff;stroke-linecap:round;stroke-linejoin:round;stroke-width:2px;}.cls-26{fill:#fff;opacity:0;}</style></defs><title>icon3</title><g id="Слой_2" data-name="Слой 2"><g id="Main"><path class="cls-16" d="M55.44,60.32v4.55a.79.79,0,0,0,.74.83h3.26a.79.79,0,0,0,.74-.83V60.32h1.16a.86.86,0,0,0,.52-1.42l-3.53-4a.67.67,0,0,0-1,0l-3.53,4a.85.85,0,0,0,.52,1.42Z"></path><path class="cls-16" d="M67.4,60.32v4.55a.79.79,0,0,0,.73.83H71.4a.79.79,0,0,0,.73-.83V60.32h1.16a.85.85,0,0,0,.52-1.42l-3.53-4a.67.67,0,0,0-1,0l-3.52,4a.85.85,0,0,0,.51,1.42Z"></path><line class="cls-16" x1="53.54" y1="69.6" x2="74.03" y2="69.6"></line><polyline class="cls-16" points="80.33 42.23 80.33 77.18 16.68 77.18 16.68 23.55 80.33 23.55 85.32 36.58 21.67 36.58 16.68 23.55"></polyline><rect class="cls-26" x="1" y="1" width="100" height="100"></rect></g></g></svg>