<svg style="fill:#0d519b" id="svg-port" data-name="svg-port" xmlns="http://www.w3.org/2000/svg" viewBox="0 0 90.62 90.07"><title>TEU</title><path d="M50.14,95.33H6c-1.25,0-1.26,0-1.26-1.3q0-21.69,0-43.39c0-1.18,0-1.18,1.2-1.18,5.69,0,11.38,0,17.07,0a2.39,2.39,0,0,0,1.43-.51c5.37-4.64,10.7-9.32,16.07-14,.65-.56.67-.92.13-1.6A7.57,7.57,0,0,1,44,21.32a.79.79,0,0,0,.63-.91,8.34,8.34,0,0,0,0-1.25,1.88,1.88,0,0,0-.51-1c-3.35-2.65-3.56-8.85-.38-11.69a4.32,4.32,0,0,1,6.08.15c3.22,3.1,2.72,9.25-.94,11.83a1.34,1.34,0,0,0-.5.92c-.05,1.59,0,3.17,0,4.76,0,.62-.2.85-.83.84a7.92,7.92,0,0,0-2,.17,3.41,3.41,0,0,0-2.63,2.56,3.48,3.48,0,0,0,.84,3.5c.41.42.76.49,1.22.07.93-.84,1.92-1.62,2.85-2.47.49-.45.88-.59,1.47-.1s.89.35,1.07-.44a2,2,0,0,1,2-1.63,1.91,1.91,0,0,1,1.8,1.9,13.52,13.52,0,0,1-.5,2.89.89.89,0,0,0,.29,1.08q9.93,8.35,19.87,16.7a1.92,1.92,0,0,0,1.15.31q9.75,0,19.49,0c.73,0,1,.11,1,1q0,21.78,0,43.57c0,1.34,0,1.34-1.31,1.34ZM67.36,49.27a3.69,3.69,0,0,0-.36-.47q-7.87-6.69-15.74-13.37a.92.92,0,0,0-1.19-.12,6.74,6.74,0,0,1-4.16.78,1.59,1.59,0,0,0-1.1.4Q37.92,42.4,31.09,48.37a3.71,3.71,0,0,0-.52.76,3.09,3.09,0,0,0,.94.33q17.42,0,34.85,0A6,6,0,0,0,67.36,49.27ZM60,73.69c0-4.49,0-9,0-13.46a2.58,2.58,0,1,0-5.13,0q0,6.15,0,12.29,0,7.27,0,14.54a2.58,2.58,0,1,0,5.14.08C60,82.66,60,78.17,60,73.69Zm-44,0h0q0,6.69,0,13.39a2.59,2.59,0,0,0,2.51,2.9c1.57,0,2.61-1.1,2.61-2.89q0-13.39,0-26.77c0-1.79-1-2.91-2.6-2.89S16,58.57,16,60.37Q16,67,16,73.67Zm51.75,0c0,4.49,0,9,0,13.48a2.57,2.57,0,1,0,5.12,0q0-13.48,0-27a3.5,3.5,0,0,0-.28-1.39,2.49,2.49,0,0,0-2.84-1.37,2.61,2.61,0,0,0-2,2.66C67.75,64.62,67.75,69.15,67.76,73.67Zm-20.69.1h0c0-4.55,0-9.1,0-13.66a2.57,2.57,0,0,0-3.13-2.67c-1.26.28-2,1.3-2,2.93q0,13.34,0,26.68a3.85,3.85,0,0,0,.21,1.32A2.5,2.5,0,0,0,45,89.92a2.56,2.56,0,0,0,2.06-2.58C47.08,82.81,47.07,78.29,47.07,73.77ZM34,73.77c0-4.55,0-9.1,0-13.66a2.51,2.51,0,0,0-2.58-2.71,2.53,2.53,0,0,0-2.51,2.7c0,2,0,4,0,5.93q0,10.6,0,21.2A2.55,2.55,0,1,0,34,87.15Q34,80.46,34,73.77Zm51.89,0q0-6.69,0-13.38a4.6,4.6,0,0,0-.08-1.07A2.54,2.54,0,0,0,83,57.41a2.48,2.48,0,0,0-2.22,2.51c0,4,0,7.91,0,11.86q0,7.59,0,15.18a4.13,4.13,0,0,0,.19,1.4,2.48,2.48,0,0,0,2.82,1.55,2.54,2.54,0,0,0,2.06-2.58C85.91,82.81,85.9,78.29,85.9,73.77Z" transform="translate(-4.78 -5.26)"/></svg>