<svg xmlns="http://www.w3.org/2000/svg" xmlns:xlink="http://www.w3.org/1999/xlink" viewBox="0 0 310.61 393.66"><defs><style>.cls-1{fill:#930000;}.cls-2{fill:#c22108;}.cls-3{fill:#b52509;}.cls-4{isolation:isolate;}.cls-5{fill:#fff;opacity:0;}.cls-6{clip-path:url(#clip-path);}.cls-7{fill:#ff6a00;}.cls-8{fill:#e64d00;}.cls-9{fill:#f4330a;}.cls-10{clip-path:url(#clip-path-2);}.cls-11{opacity:0.5;mix-blend-mode:soft-light;}.cls-12{fill:#d32c16;}.cls-13{clip-path:url(#clip-path-3);}.cls-14{fill:none;stroke:#7d808a;stroke-miterlimit:10;}.cls-15{fill:#c7a161;}.cls-16{fill:#ded292;}.cls-17{fill:#e1cb7c;}</style><clipPath id="clip-path"><polygon id="_Обтравочный_контур_" data-name="&lt;Обтравочный контур&gt;" class="cls-1" points="157.35 233.98 272.81 161.98 272.81 290.26 157.35 362.26 157.35 233.98"/></clipPath><clipPath id="clip-path-2"><polygon id="_Обтравочный_контур_2" data-name="&lt;Обтравочный контур&gt;" class="cls-2" points="40.76 157.1 156.02 87.95 267.81 147.08 148.56 219.02 40.76 157.1"/></clipPath><clipPath id="clip-path-3"><polygon id="_Обтравочный_контур_3" data-name="&lt;Обтравочный контур&gt;" class="cls-3" points="267.81 147.08 148.56 219.02 40.76 157.1 156.02 87.95 267.81 147.08"/></clipPath></defs><title>Containers 10 foot</title><g class="cls-4"><g id="Layer_3" data-name="Layer 3"><rect class="cls-5" width="310.61" height="393.66"/><polygon class="cls-3" points="148.67 377.58 281.45 295.16 280.95 146.94 148.67 229.08 148.67 377.58"/><polygon id="_Обтравочный_контур_4" data-name="&lt;Обтравочный контур&gt;" class="cls-1" points="157.35 233.98 272.81 161.98 272.81 290.26 157.35 362.26 157.35 233.98"/><g class="cls-6"><rect class="cls-3" x="167.73" y="204.86" width="9.06" height="167.43"/><rect class="cls-3" x="189.42" y="196.36" width="9.06" height="167.43"/><rect class="cls-3" x="211.11" y="187.85" width="9.06" height="167.43"/><rect class="cls-3" x="232.8" y="175.64" width="9.06" height="167.43"/><rect class="cls-3" x="254.49" y="165.9" width="9.06" height="167.43"/></g><polygon class="cls-7" points="148.67 377.58 23.66 305.78 23.66 157.27 148.67 229.08 148.67 377.58"/><polygon class="cls-8" points="32.3 300.76 32.3 172.24 140.01 234.09 140.01 362.61 32.3 300.76"/><polygon class="cls-7" points="27.35 286.3 27.35 279.45 144.97 346.37 144.97 353.21 27.35 286.3"/><polygon class="cls-7" points="27.35 239.25 27.35 232.41 144.97 299.32 144.97 306.16 27.35 239.25"/><polygon class="cls-7" points="27.35 215.73 27.35 208.88 144.97 275.8 144.97 282.64 27.35 215.73"/><polygon class="cls-7" points="27.35 192.2 27.35 185.36 144.97 252.28 144.97 259.12 27.35 192.2"/><polygon class="cls-9" points="280.95 146.94 155.94 77.89 23.66 157.27 148.67 229.08 280.95 146.94"/><polygon id="_Обтравочный_контур_5" data-name="&lt;Обтравочный контур&gt;" class="cls-2" points="40.76 157.1 156.02 87.95 267.81 147.08 148.56 219.02 40.76 157.1"/><g class="cls-10"><polygon class="cls-11" points="308.91 211.26 156.02 211.26 156.02 85.27 348.44 60.86 308.91 211.26"/><polygon class="cls-12" points="43.74 158.81 156.02 91.47 267.81 150.6 148.56 219.02 43.74 158.81"/></g><polygon class="cls-7" points="96.06 198.86 71.94 185.01 71.94 333.51 96.06 347.37 96.06 198.86"/><polygon id="_Обтравочный_контур_6" data-name="&lt;Обтравочный контур&gt;" class="cls-3" points="267.81 147.08 148.56 219.02 40.76 157.1 156.02 87.95 267.81 147.08"/><g class="cls-13"><polygon class="cls-9" points="52.92 146 63.11 142.9 177.74 206.4 167.28 209.55 52.92 146"/><polygon class="cls-9" points="72.27 132.55 82.46 129.45 198.12 193.84 187.65 197 72.27 132.55"/><polygon class="cls-9" points="93.13 120.66 103.32 117.56 218.98 181.83 208.52 184.99 93.13 120.66"/><polygon class="cls-9" points="114.71 108.74 124.9 105.64 239.36 169.07 228.9 172.23 114.71 108.74"/><polygon class="cls-9" points="135.44 96.68 145.63 93.58 260.06 157.23 249.6 160.39 135.44 96.68"/></g><line class="cls-14" x1="32.3" y1="157.27" x2="144.7" y2="68.13"/><line class="cls-14" x1="148.85" y1="222.24" x2="144.7" y2="68.13"/><line class="cls-14" x1="156.49" y1="83.25" x2="144.7" y2="68.13"/><line class="cls-14" x1="272.81" y1="146.94" x2="144.7" y2="68.13"/><polygon class="cls-15" points="143.24 73.83 152.15 68.78 157.77 39.8 135.67 52.62 143.24 73.83"/><polygon class="cls-16" points="143.24 73.83 137.96 70.86 130.39 49.64 135.67 52.62 143.24 73.83"/><polygon class="cls-17" points="157.68 39.85 152.08 36.83 130.39 49.64 135.67 52.62 157.68 39.85"/><line class="cls-14" x1="144.08" y1="44.61" x2="144.08"/></g></g></svg>