<svg xmlns="http://www.w3.org/2000/svg" viewBox="0 0 102 102"><defs><style>.cls-16{fill:none;}.cls-16,.cls-36{stroke:#0d519b;stroke-linecap:round;stroke-linejoin:round;stroke-width:2px;}.cls-26{fill:#0d519b;}.cls-36{fill:#fff;opacity:0;}</style></defs><title>icon2</title><g id="Слой_2" data-name="Слой 2"><g id="Main"><path class="cls-16" d="M70.91,44.19H47.09a7.87,7.87,0,0,0,0,15.74H70.91a7.87,7.87,0,1,1,0,15.74H30.68"></path><path class="cls-16" d="M28.28,71.52s-6-6-6-10.44h0a7.87,7.87,0,0,1,15.74,0c0,5.16-7.32,14.59-7.32,14.59"></path><path class="cls-16" d="M69.05,40s-6-7.69-6-10.42h0a7.87,7.87,0,1,1,15.74,0c0,5.25-7.32,14.59-7.32,14.59"></path><circle class="cls-26" cx="70.91" cy="29.31" r="3.06"></circle><circle class="cls-26" cx="30.13" cy="60.59" r="3.06"></circle><rect class="cls-36" x="1" y="1" width="100" height="100"></rect></g></g></svg>