<svg xmlns="http://www.w3.org/2000/svg" viewBox="0 0 12.73 17.47"><defs><style>.cls-1{fill:#0d519b;}</style></defs><title>iconsea</title><g id="Слой_2" data-name="Слой 2"><g id="Main"><path class="cls-1" d="M4.22,4.06H0V9L6.36,7.12,12.73,9V4.06H8.51s-.1-1.42,1-1.42h.79V1.45H7.62v-1A1.83,1.83,0,0,0,6.46,0,1.72,1.72,0,0,0,5.31.43v1H2.44V2.74H3.3S4.22,2.7,4.22,4.06Z"/><path class="cls-1" d="M6.12,7.73,0,9.54v3.32a2.23,2.23,0,0,0,1.51,2.38c1.48.69,3.86,1.85,4.61,2.22Z"/><path class="cls-1" d="M6.6,7.73v9.74c.78-.35,3.3-1.49,4.51-2.08,1.62-.8,1.62-1.62,1.62-2.35V9.54Z"/></g></g></svg>